<?xml version="1.0" standalone="no"?>
<!DOCTYPE svg PUBLIC "-//W3C//DTD SVG 20010904//EN"
 "http://www.w3.org/TR/2001/REC-SVG-20010904/DTD/svg10.dtd">
<svg version="1.0" xmlns="http://www.w3.org/2000/svg"
 width="512.000000pt" height="512.000000pt" viewBox="0 0 512.000000 512.000000"
 preserveAspectRatio="xMidYMid meet">
<symbol id="calculator" viewBox="0 0 512.000000 512.000000">
<g transform="translate(0.000000,512.000000) scale(0.100000,-0.100000)"
fill="#000000" stroke="none">
<path d="M810 5111 c-76 -24 -140 -71 -185 -135 -70 -103 -65 72 -65 -2416 0
-1992 2 -2253 15 -2305 26 -100 85 -172 180 -223 l50 -27 1755 0 1755 0 50 26
c99 53 164 141 185 248 14 74 14 4488 0 4562 -21 109 -84 194 -182 246 l-53
28 -1740 2 c-957 1 -1751 -2 -1765 -6z m3106 -585 c59 -27 116 -90 132 -145 8
-24 12 -123 12 -272 0 -214 -2 -238 -21 -279 -27 -60 -64 -98 -124 -126 l-50
-24 -1305 0 c-1291 0 -1305 1 -1350 21 -60 27 -98 64 -126 124 -23 48 -24 59
-24 284 0 154 4 248 12 275 15 51 99 137 148 153 25 8 419 11 1340 12 l1305 1
51 -24z m-2207 -1404 c63 -34 71 -63 71 -269 l0 -183 185 0 c199 0 227 -6 257
-52 27 -42 30 -76 9 -123 -31 -70 -50 -75 -266 -75 l-185 0 0 -183 c0 -208 -8
-236 -74 -270 -70 -37 -158 7 -176 88 -5 22 -10 113 -10 203 l0 162 -180 0
c-201 0 -226 6 -260 63 -26 42 -25 86 3 128 37 55 53 59 254 59 l181 0 4 188
c3 208 8 224 71 262 40 25 73 25 116 2z m2291 -468 c80 -48 80 -170 0 -218
-25 -14 -84 -16 -535 -16 l-507 0 -39 39 c-34 34 -39 44 -39 86 0 42 5 52 39
86 l39 39 507 0 c451 0 510 -2 535 -16z m-794 -1179 c88 -67 84 -192 -8 -253
-72 -47 -165 -27 -216 49 -20 28 -23 44 -20 92 4 46 10 63 34 88 61 66 143 75
210 24z m-1833 -9 c18 -8 86 -68 152 -135 66 -67 124 -121 130 -121 6 0 66 56
135 125 68 68 136 129 152 136 85 35 184 -55 163 -149 -4 -18 -52 -74 -135
-157 -72 -72 -130 -134 -130 -139 0 -6 58 -69 129 -141 106 -106 130 -137 136
-168 16 -87 -57 -160 -149 -149 -22 3 -65 38 -168 140 l-138 136 -138 -137
c-97 -96 -146 -137 -163 -138 -95 -5 -149 43 -149 132 0 41 4 47 137 181 l137
138 -126 128 c-69 70 -131 137 -137 149 -16 32 -13 95 5 122 21 30 73 61 102
61 12 0 37 -6 55 -14z m2447 -31 c48 -25 70 -62 70 -118 l0 -51 -342 -344
c-189 -189 -355 -352 -370 -363 -86 -62 -213 21 -194 126 7 36 45 78 354 389
191 191 361 354 377 362 39 17 70 17 105 -1z m81 -607 c95 -53 111 -168 35
-244 -62 -62 -149 -63 -213 -1 -61 58 -68 138 -17 204 48 64 126 80 195 41z"/>
</g>
</symbol>
</svg>
